<svg xmlns="http://www.w3.org/2000/svg" xmlns:xlink="http://www.w3.org/1999/xlink" width="500" zoomAndPan="magnify" viewBox="0 0 375 374.999991" height="500" preserveAspectRatio="xMidYMid meet" version="1.0"><defs><clipPath id="8eb7138b22"><path d="M 40.039062 44.046875 L 333.675781 44.046875 L 333.675781 337.683594 L 40.039062 337.683594 Z M 40.039062 44.046875 " clip-rule="nonzero"/></clipPath><clipPath id="d9749a44c8"><path d="M 57.289062 44.046875 L 316.425781 44.046875 C 325.953125 44.046875 333.675781 51.769531 333.675781 61.296875 L 333.675781 320.433594 C 333.675781 329.960938 325.953125 337.683594 316.425781 337.683594 L 57.289062 337.683594 C 47.761719 337.683594 40.039062 329.960938 40.039062 320.433594 L 40.039062 61.296875 C 40.039062 51.769531 47.761719 44.046875 57.289062 44.046875 Z M 57.289062 44.046875 " clip-rule="nonzero"/></clipPath><linearGradient x1="-0.000000303637" gradientTransform="matrix(1.147026, 0, 0, 1.147026, 40.038727, 44.045079)" y1="128" x2="255.999992" gradientUnits="userSpaceOnUse" y2="128" id="3502438923"><stop stop-opacity="1" stop-color="rgb(100%, 87.098694%, 34.899902%)" offset="0"/><stop stop-opacity="1" stop-color="rgb(100%, 86.981201%, 34.881592%)" offset="0.0078125"/><stop stop-opacity="1" stop-color="rgb(100%, 86.74469%, 34.843445%)" offset="0.015625"/><stop stop-opacity="1" stop-color="rgb(100%, 86.508179%, 34.806824%)" offset="0.0234375"/><stop stop-opacity="1" stop-color="rgb(100%, 86.273193%, 34.770203%)" offset="0.03125"/><stop stop-opacity="1" stop-color="rgb(100%, 86.036682%, 34.733582%)" offset="0.0390625"/><stop stop-opacity="1" stop-color="rgb(100%, 85.801697%, 34.69696%)" offset="0.046875"/><stop stop-opacity="1" stop-color="rgb(100%, 85.565186%, 34.660339%)" offset="0.0546875"/><stop stop-opacity="1" stop-color="rgb(100%, 85.328674%, 34.623718%)" offset="0.0625"/><stop stop-opacity="1" stop-color="rgb(100%, 85.093689%, 34.587097%)" offset="0.0703125"/><stop stop-opacity="1" stop-color="rgb(100%, 84.857178%, 34.550476%)" offset="0.078125"/><stop stop-opacity="1" stop-color="rgb(100%, 84.620667%, 34.513855%)" offset="0.0859375"/><stop stop-opacity="1" stop-color="rgb(100%, 84.385681%, 34.477234%)" offset="0.09375"/><stop stop-opacity="1" stop-color="rgb(100%, 84.14917%, 34.440613%)" offset="0.101563"/><stop stop-opacity="1" stop-color="rgb(100%, 83.914185%, 34.403992%)" offset="0.109375"/><stop stop-opacity="1" stop-color="rgb(100%, 83.677673%, 34.367371%)" offset="0.117188"/><stop stop-opacity="1" stop-color="rgb(100%, 83.441162%, 34.33075%)" offset="0.125"/><stop stop-opacity="1" stop-color="rgb(100%, 83.206177%, 34.292603%)" offset="0.132812"/><stop stop-opacity="1" stop-color="rgb(100%, 82.969666%, 34.255981%)" offset="0.140625"/><stop stop-opacity="1" stop-color="rgb(100%, 82.73468%, 34.21936%)" offset="0.148438"/><stop stop-opacity="1" stop-color="rgb(100%, 82.498169%, 34.182739%)" offset="0.15625"/><stop stop-opacity="1" stop-color="rgb(100%, 82.261658%, 34.146118%)" offset="0.164062"/><stop stop-opacity="1" stop-color="rgb(100%, 82.026672%, 34.109497%)" offset="0.171875"/><stop stop-opacity="1" stop-color="rgb(100%, 81.790161%, 34.072876%)" offset="0.179688"/><stop stop-opacity="1" stop-color="rgb(100%, 81.55365%, 34.036255%)" offset="0.1875"/><stop stop-opacity="1" stop-color="rgb(100%, 81.318665%, 33.999634%)" offset="0.195313"/><stop stop-opacity="1" stop-color="rgb(100%, 81.082153%, 33.963013%)" offset="0.203125"/><stop stop-opacity="1" stop-color="rgb(100%, 80.847168%, 33.926392%)" offset="0.210938"/><stop stop-opacity="1" stop-color="rgb(100%, 80.610657%, 33.889771%)" offset="0.21875"/><stop stop-opacity="1" stop-color="rgb(100%, 80.374146%, 33.853149%)" offset="0.226562"/><stop stop-opacity="1" stop-color="rgb(100%, 80.13916%, 33.816528%)" offset="0.234375"/><stop stop-opacity="1" stop-color="rgb(100%, 79.902649%, 33.779907%)" offset="0.242187"/><stop stop-opacity="1" stop-color="rgb(100%, 79.666138%, 33.743286%)" offset="0.25"/><stop stop-opacity="1" stop-color="rgb(100%, 79.431152%, 33.705139%)" offset="0.257812"/><stop stop-opacity="1" stop-color="rgb(100%, 79.194641%, 33.668518%)" offset="0.265625"/><stop stop-opacity="1" stop-color="rgb(100%, 78.959656%, 33.631897%)" offset="0.273438"/><stop stop-opacity="1" stop-color="rgb(100%, 78.723145%, 33.595276%)" offset="0.28125"/><stop stop-opacity="1" stop-color="rgb(100%, 78.486633%, 33.558655%)" offset="0.289062"/><stop stop-opacity="1" stop-color="rgb(100%, 78.251648%, 33.522034%)" offset="0.296875"/><stop stop-opacity="1" stop-color="rgb(100%, 78.015137%, 33.485413%)" offset="0.304688"/><stop stop-opacity="1" stop-color="rgb(100%, 77.778625%, 33.448792%)" offset="0.3125"/><stop stop-opacity="1" stop-color="rgb(100%, 77.54364%, 33.41217%)" offset="0.320312"/><stop stop-opacity="1" stop-color="rgb(100%, 77.307129%, 33.375549%)" offset="0.328125"/><stop stop-opacity="1" stop-color="rgb(100%, 77.072144%, 33.338928%)" offset="0.335938"/><stop stop-opacity="1" stop-color="rgb(100%, 76.835632%, 33.302307%)" offset="0.34375"/><stop stop-opacity="1" stop-color="rgb(100%, 76.599121%, 33.265686%)" offset="0.351562"/><stop stop-opacity="1" stop-color="rgb(100%, 76.364136%, 33.229065%)" offset="0.359375"/><stop stop-opacity="1" stop-color="rgb(100%, 76.127625%, 33.192444%)" offset="0.367188"/><stop stop-opacity="1" stop-color="rgb(100%, 75.891113%, 33.154297%)" offset="0.375"/><stop stop-opacity="1" stop-color="rgb(100%, 75.656128%, 33.117676%)" offset="0.382812"/><stop stop-opacity="1" stop-color="rgb(100%, 75.419617%, 33.081055%)" offset="0.390625"/><stop stop-opacity="1" stop-color="rgb(100%, 75.184631%, 33.044434%)" offset="0.398438"/><stop stop-opacity="1" stop-color="rgb(100%, 74.94812%, 33.007812%)" offset="0.40625"/><stop stop-opacity="1" stop-color="rgb(100%, 74.711609%, 32.971191%)" offset="0.414063"/><stop stop-opacity="1" stop-color="rgb(100%, 74.476624%, 32.93457%)" offset="0.421875"/><stop stop-opacity="1" stop-color="rgb(100%, 74.240112%, 32.897949%)" offset="0.429688"/><stop stop-opacity="1" stop-color="rgb(100%, 74.003601%, 32.861328%)" offset="0.4375"/><stop stop-opacity="1" stop-color="rgb(100%, 73.768616%, 32.824707%)" offset="0.445312"/><stop stop-opacity="1" stop-color="rgb(100%, 73.532104%, 32.788086%)" offset="0.453125"/><stop stop-opacity="1" stop-color="rgb(100%, 73.297119%, 32.751465%)" offset="0.460938"/><stop stop-opacity="1" stop-color="rgb(100%, 73.060608%, 32.714844%)" offset="0.46875"/><stop stop-opacity="1" stop-color="rgb(100%, 72.824097%, 32.678223%)" offset="0.476562"/><stop stop-opacity="1" stop-color="rgb(100%, 72.589111%, 32.641602%)" offset="0.484375"/><stop stop-opacity="1" stop-color="rgb(100%, 72.3526%, 32.60498%)" offset="0.492188"/><stop stop-opacity="1" stop-color="rgb(100%, 72.116089%, 32.566833%)" offset="0.5"/><stop stop-opacity="1" stop-color="rgb(100%, 71.881104%, 32.530212%)" offset="0.507812"/><stop stop-opacity="1" stop-color="rgb(100%, 71.644592%, 32.493591%)" offset="0.515625"/><stop stop-opacity="1" stop-color="rgb(100%, 71.409607%, 32.45697%)" offset="0.523438"/><stop stop-opacity="1" stop-color="rgb(100%, 71.173096%, 32.420349%)" offset="0.53125"/><stop stop-opacity="1" stop-color="rgb(100%, 70.936584%, 32.383728%)" offset="0.539062"/><stop stop-opacity="1" stop-color="rgb(100%, 70.701599%, 32.347107%)" offset="0.546875"/><stop stop-opacity="1" stop-color="rgb(100%, 70.465088%, 32.310486%)" offset="0.554688"/><stop stop-opacity="1" stop-color="rgb(100%, 70.228577%, 32.273865%)" offset="0.5625"/><stop stop-opacity="1" stop-color="rgb(100%, 69.993591%, 32.237244%)" offset="0.570312"/><stop stop-opacity="1" stop-color="rgb(100%, 69.75708%, 32.200623%)" offset="0.578125"/><stop stop-opacity="1" stop-color="rgb(100%, 69.522095%, 32.164001%)" offset="0.585938"/><stop stop-opacity="1" stop-color="rgb(100%, 69.285583%, 32.12738%)" offset="0.59375"/><stop stop-opacity="1" stop-color="rgb(100%, 69.049072%, 32.090759%)" offset="0.601563"/><stop stop-opacity="1" stop-color="rgb(100%, 68.814087%, 32.054138%)" offset="0.609375"/><stop stop-opacity="1" stop-color="rgb(100%, 68.577576%, 32.017517%)" offset="0.617188"/><stop stop-opacity="1" stop-color="rgb(100%, 68.341064%, 31.97937%)" offset="0.625"/><stop stop-opacity="1" stop-color="rgb(100%, 68.106079%, 31.942749%)" offset="0.632813"/><stop stop-opacity="1" stop-color="rgb(100%, 67.869568%, 31.906128%)" offset="0.640625"/><stop stop-opacity="1" stop-color="rgb(100%, 67.634583%, 31.869507%)" offset="0.648438"/><stop stop-opacity="1" stop-color="rgb(100%, 67.398071%, 31.832886%)" offset="0.65625"/><stop stop-opacity="1" stop-color="rgb(100%, 67.16156%, 31.796265%)" offset="0.664063"/><stop stop-opacity="1" stop-color="rgb(100%, 66.926575%, 31.759644%)" offset="0.671875"/><stop stop-opacity="1" stop-color="rgb(100%, 66.690063%, 31.723022%)" offset="0.679687"/><stop stop-opacity="1" stop-color="rgb(100%, 66.453552%, 31.686401%)" offset="0.6875"/><stop stop-opacity="1" stop-color="rgb(100%, 66.218567%, 31.64978%)" offset="0.695312"/><stop stop-opacity="1" stop-color="rgb(100%, 65.982056%, 31.613159%)" offset="0.703125"/><stop stop-opacity="1" stop-color="rgb(100%, 65.74707%, 31.576538%)" offset="0.710937"/><stop stop-opacity="1" stop-color="rgb(100%, 65.510559%, 31.539917%)" offset="0.71875"/><stop stop-opacity="1" stop-color="rgb(100%, 65.274048%, 31.503296%)" offset="0.726562"/><stop stop-opacity="1" stop-color="rgb(100%, 65.039062%, 31.466675%)" offset="0.734375"/><stop stop-opacity="1" stop-color="rgb(100%, 64.802551%, 31.428528%)" offset="0.742188"/><stop stop-opacity="1" stop-color="rgb(100%, 64.56604%, 31.391907%)" offset="0.75"/><stop stop-opacity="1" stop-color="rgb(100%, 64.331055%, 31.355286%)" offset="0.757812"/><stop stop-opacity="1" stop-color="rgb(100%, 64.094543%, 31.318665%)" offset="0.765625"/><stop stop-opacity="1" stop-color="rgb(100%, 63.859558%, 31.282043%)" offset="0.773438"/><stop stop-opacity="1" stop-color="rgb(100%, 63.623047%, 31.245422%)" offset="0.78125"/><stop stop-opacity="1" stop-color="rgb(100%, 63.386536%, 31.208801%)" offset="0.789063"/><stop stop-opacity="1" stop-color="rgb(100%, 63.15155%, 31.17218%)" offset="0.796875"/><stop stop-opacity="1" stop-color="rgb(100%, 62.915039%, 31.135559%)" offset="0.804688"/><stop stop-opacity="1" stop-color="rgb(100%, 62.678528%, 31.098938%)" offset="0.8125"/><stop stop-opacity="1" stop-color="rgb(100%, 62.443542%, 31.062317%)" offset="0.820313"/><stop stop-opacity="1" stop-color="rgb(100%, 62.207031%, 31.025696%)" offset="0.828125"/><stop stop-opacity="1" stop-color="rgb(100%, 61.972046%, 30.989075%)" offset="0.835938"/><stop stop-opacity="1" stop-color="rgb(100%, 61.735535%, 30.952454%)" offset="0.84375"/><stop stop-opacity="1" stop-color="rgb(100%, 61.499023%, 30.915833%)" offset="0.851563"/><stop stop-opacity="1" stop-color="rgb(100%, 61.264038%, 30.879211%)" offset="0.859375"/><stop stop-opacity="1" stop-color="rgb(100%, 61.027527%, 30.841064%)" offset="0.867188"/><stop stop-opacity="1" stop-color="rgb(100%, 60.791016%, 30.804443%)" offset="0.875"/><stop stop-opacity="1" stop-color="rgb(100%, 60.55603%, 30.767822%)" offset="0.882813"/><stop stop-opacity="1" stop-color="rgb(100%, 60.319519%, 30.731201%)" offset="0.890625"/><stop stop-opacity="1" stop-color="rgb(100%, 60.084534%, 30.69458%)" offset="0.898437"/><stop stop-opacity="1" stop-color="rgb(100%, 59.848022%, 30.657959%)" offset="0.90625"/><stop stop-opacity="1" stop-color="rgb(100%, 59.611511%, 30.621338%)" offset="0.914062"/><stop stop-opacity="1" stop-color="rgb(100%, 59.376526%, 30.584717%)" offset="0.921875"/><stop stop-opacity="1" stop-color="rgb(100%, 59.140015%, 30.548096%)" offset="0.929687"/><stop stop-opacity="1" stop-color="rgb(100%, 58.903503%, 30.511475%)" offset="0.9375"/><stop stop-opacity="1" stop-color="rgb(100%, 58.668518%, 30.474854%)" offset="0.945312"/><stop stop-opacity="1" stop-color="rgb(100%, 58.432007%, 30.438232%)" offset="0.953125"/><stop stop-opacity="1" stop-color="rgb(100%, 58.197021%, 30.401611%)" offset="0.960937"/><stop stop-opacity="1" stop-color="rgb(100%, 57.96051%, 30.36499%)" offset="0.96875"/><stop stop-opacity="1" stop-color="rgb(100%, 57.723999%, 30.328369%)" offset="0.976562"/><stop stop-opacity="1" stop-color="rgb(100%, 57.489014%, 30.291748%)" offset="0.984375"/><stop stop-opacity="1" stop-color="rgb(100%, 57.252502%, 30.253601%)" offset="0.992188"/><stop stop-opacity="1" stop-color="rgb(100%, 57.015991%, 30.21698%)" offset="1"/></linearGradient><clipPath id="7127ed7338"><path d="M 58 115 L 326 115 L 326 300 L 58 300 Z M 58 115 " clip-rule="nonzero"/></clipPath><clipPath id="cb99e40d6a"><path d="M 48.480469 122.355469 L 320.222656 102.058594 L 334.1875 289.035156 L 62.445312 309.335938 Z M 48.480469 122.355469 " clip-rule="nonzero"/></clipPath><clipPath id="a7c92e1ae0"><path d="M 48.480469 122.355469 L 320.222656 102.058594 L 334.1875 289.035156 L 62.445312 309.335938 Z M 48.480469 122.355469 " clip-rule="nonzero"/></clipPath><clipPath id="f51d2e9fac"><path d="M 53 111 L 331 111 L 331 304 L 53 304 Z M 53 111 " clip-rule="nonzero"/></clipPath><clipPath id="8dec58b26e"><path d="M 48.480469 122.355469 L 320.222656 102.058594 L 334.1875 289.035156 L 62.445312 309.335938 Z M 48.480469 122.355469 " clip-rule="nonzero"/></clipPath><clipPath id="144ba7a701"><path d="M 48.480469 122.355469 L 320.222656 102.058594 L 334.1875 289.035156 L 62.445312 309.335938 Z M 48.480469 122.355469 " clip-rule="nonzero"/></clipPath><clipPath id="da7d9e552c"><path d="M 61 202 L 187 202 L 187 292 L 61 292 Z M 61 202 " clip-rule="nonzero"/></clipPath><clipPath id="1898d895f8"><path d="M 48.480469 122.355469 L 320.222656 102.058594 L 334.1875 289.035156 L 62.445312 309.335938 Z M 48.480469 122.355469 " clip-rule="nonzero"/></clipPath><clipPath id="b28078ced6"><path d="M 48.480469 122.355469 L 320.222656 102.058594 L 334.1875 289.035156 L 62.445312 309.335938 Z M 48.480469 122.355469 " clip-rule="nonzero"/></clipPath><clipPath id="a267a173ec"><path d="M 62 117 L 314 117 L 314 252 L 62 252 Z M 62 117 " clip-rule="nonzero"/></clipPath><clipPath id="5772c6647c"><path d="M 48.480469 122.355469 L 320.222656 102.058594 L 334.1875 289.035156 L 62.445312 309.335938 Z M 48.480469 122.355469 " clip-rule="nonzero"/></clipPath><clipPath id="33f9241315"><path d="M 48.480469 122.355469 L 320.222656 102.058594 L 334.1875 289.035156 L 62.445312 309.335938 Z M 48.480469 122.355469 " clip-rule="nonzero"/></clipPath><clipPath id="09d3e20321"><path d="M 176 151 L 318 151 L 318 292 L 176 292 Z M 176 151 " clip-rule="nonzero"/></clipPath><clipPath id="444b238726"><path d="M 48.480469 122.355469 L 320.222656 102.058594 L 334.1875 289.035156 L 62.445312 309.335938 Z M 48.480469 122.355469 " clip-rule="nonzero"/></clipPath><clipPath id="49d43dd324"><path d="M 48.480469 122.355469 L 320.222656 102.058594 L 334.1875 289.035156 L 62.445312 309.335938 Z M 48.480469 122.355469 " clip-rule="nonzero"/></clipPath><clipPath id="58ca679153"><path d="M 57 111 L 322 111 L 322 256 L 57 256 Z M 57 111 " clip-rule="nonzero"/></clipPath><clipPath id="7f29c2900b"><path d="M 48.480469 122.355469 L 320.222656 102.058594 L 334.1875 289.035156 L 62.445312 309.335938 Z M 48.480469 122.355469 " clip-rule="nonzero"/></clipPath><clipPath id="af5aa5b2e1"><path d="M 48.480469 122.355469 L 320.222656 102.058594 L 334.1875 289.035156 L 62.445312 309.335938 Z M 48.480469 122.355469 " clip-rule="nonzero"/></clipPath><clipPath id="e4bf7fd25f"><path d="M 52 107 L 327 107 L 327 260 L 52 260 Z M 52 107 " clip-rule="nonzero"/></clipPath><clipPath id="b641e1f4d2"><path d="M 48.480469 122.355469 L 320.222656 102.058594 L 334.1875 289.035156 L 62.445312 309.335938 Z M 48.480469 122.355469 " clip-rule="nonzero"/></clipPath><clipPath id="189f6b676b"><path d="M 48.480469 122.355469 L 320.222656 102.058594 L 334.1875 289.035156 L 62.445312 309.335938 Z M 48.480469 122.355469 " clip-rule="nonzero"/></clipPath><clipPath id="ea0210a8da"><path d="M 55 200 L 189 200 L 189 300 L 55 300 Z M 55 200 " clip-rule="nonzero"/></clipPath><clipPath id="f7a802dc20"><path d="M 48.480469 122.355469 L 320.222656 102.058594 L 334.1875 289.035156 L 62.445312 309.335938 Z M 48.480469 122.355469 " clip-rule="nonzero"/></clipPath><clipPath id="a32c6d4b1c"><path d="M 48.480469 122.355469 L 320.222656 102.058594 L 334.1875 289.035156 L 62.445312 309.335938 Z M 48.480469 122.355469 " clip-rule="nonzero"/></clipPath><clipPath id="5bac121990"><path d="M 50 195 L 194 195 L 194 304 L 50 304 Z M 50 195 " clip-rule="nonzero"/></clipPath><clipPath id="5099615a83"><path d="M 48.480469 122.355469 L 320.222656 102.058594 L 334.1875 289.035156 L 62.445312 309.335938 Z M 48.480469 122.355469 " clip-rule="nonzero"/></clipPath><clipPath id="4971e1b68a"><path d="M 48.480469 122.355469 L 320.222656 102.058594 L 334.1875 289.035156 L 62.445312 309.335938 Z M 48.480469 122.355469 " clip-rule="nonzero"/></clipPath><clipPath id="0609385ad4"><path d="M 73 22 L 240 22 L 240 257 L 73 257 Z M 73 22 " clip-rule="nonzero"/></clipPath><clipPath id="cdd4b32198"><path d="M 0 267.855469 L 77.273438 14.371094 L 376.191406 105.492188 L 298.921875 358.976562 Z M 0 267.855469 " clip-rule="nonzero"/></clipPath><clipPath id="656fc24994"><path d="M 0 267.855469 L 77.273438 14.371094 L 376.191406 105.492188 L 298.921875 358.976562 Z M 0 267.855469 " clip-rule="nonzero"/></clipPath><clipPath id="f6865915b5"><path d="M 99 51 L 297 51 L 297 355 L 99 355 Z M 99 51 " clip-rule="nonzero"/></clipPath><clipPath id="9eb428e755"><path d="M 0 267.855469 L 77.273438 14.371094 L 376.191406 105.492188 L 298.921875 358.976562 Z M 0 267.855469 " clip-rule="nonzero"/></clipPath><clipPath id="72a323ae01"><path d="M 0 267.855469 L 77.273438 14.371094 L 376.191406 105.492188 L 298.921875 358.976562 Z M 0 267.855469 " clip-rule="nonzero"/></clipPath></defs><g clip-path="url(#8eb7138b22)"><g clip-path="url(#d9749a44c8)"><path fill="url(#3502438923)" d="M 40.039062 44.046875 L 40.039062 337.683594 L 333.675781 337.683594 L 333.675781 44.046875 Z M 40.039062 44.046875 " fill-rule="nonzero"/></g></g><g clip-path="url(#7127ed7338)"><g clip-path="url(#cb99e40d6a)"><g clip-path="url(#a7c92e1ae0)"><path fill="#004aad" d="M 325.652344 189.371094 C 325.539062 189.113281 325.382812 188.863281 325.199219 188.636719 C 325.015625 188.410156 324.804688 188.207031 324.578125 188.039062 C 324.347656 187.871094 324.101562 187.742188 323.847656 187.660156 L 207.757812 150.136719 C 207.589844 150.082031 207.414062 150.007812 207.234375 149.910156 C 207.058594 149.816406 206.875 149.695312 206.683594 149.554688 C 206.496094 149.414062 206.300781 149.246094 206.097656 149.054688 C 205.894531 148.863281 205.683594 148.644531 205.464844 148.398438 C 205.136719 148.035156 204.800781 147.601562 204.457031 147.117188 C 204.117188 146.632812 203.769531 146.089844 203.421875 145.496094 C 203.078125 144.90625 202.730469 144.261719 202.394531 143.578125 C 202.058594 142.894531 201.726562 142.167969 201.410156 141.40625 C 201.089844 140.644531 200.785156 139.847656 200.496094 139.019531 C 200.203125 138.195312 199.929688 137.335938 199.671875 136.460938 C 199.417969 135.582031 199.183594 134.679688 198.96875 133.765625 C 198.753906 132.851562 198.566406 131.914062 198.402344 130.972656 C 198.183594 129.714844 198.023438 128.503906 197.917969 127.351562 C 197.8125 126.195312 197.761719 125.09375 197.761719 124.066406 C 197.761719 123.039062 197.816406 122.074219 197.914062 121.199219 C 198.011719 120.320312 198.160156 119.527344 198.347656 118.828125 C 198.445312 118.476562 198.550781 118.152344 198.664062 117.855469 C 198.777344 117.554688 198.902344 117.28125 199.03125 117.035156 C 199.164062 116.785156 199.300781 116.566406 199.445312 116.371094 C 199.589844 116.179688 199.742188 116.011719 199.894531 115.875 C 199.921875 115.847656 199.953125 115.824219 199.980469 115.800781 L 200.0625 115.734375 C 200.09375 115.714844 200.121094 115.695312 200.148438 115.675781 C 200.175781 115.65625 200.207031 115.636719 200.234375 115.617188 C 153.4375 145.304688 106.644531 174.984375 59.847656 204.667969 C 59.824219 204.683594 59.800781 204.699219 59.777344 204.71875 L 59.707031 204.773438 C 59.683594 204.789062 59.660156 204.8125 59.636719 204.832031 L 59.566406 204.894531 C 59.4375 205.023438 59.316406 205.175781 59.207031 205.363281 C 59.097656 205.546875 58.996094 205.761719 58.90625 206 C 58.8125 206.242188 58.734375 206.515625 58.664062 206.8125 C 58.597656 207.109375 58.539062 207.433594 58.496094 207.789062 C 58.40625 208.492188 58.371094 209.300781 58.390625 210.203125 C 58.414062 211.101562 58.488281 212.09375 58.617188 213.160156 C 58.75 214.230469 58.9375 215.375 59.183594 216.589844 C 59.433594 217.804688 59.738281 219.078125 60.105469 220.40625 C 60.378906 221.40625 60.675781 222.394531 60.992188 223.371094 C 61.308594 224.347656 61.644531 225.308594 61.996094 226.246094 C 62.347656 227.1875 62.714844 228.105469 63.089844 229 C 63.46875 229.890625 63.859375 230.753906 64.253906 231.582031 C 64.648438 232.410156 65.050781 233.199219 65.453125 233.949219 C 65.855469 234.699219 66.261719 235.402344 66.660156 236.058594 C 67.058594 236.714844 67.453125 237.316406 67.835938 237.859375 C 68.21875 238.40625 68.589844 238.890625 68.941406 239.308594 C 69.179688 239.589844 69.402344 239.84375 69.617188 240.066406 C 69.832031 240.289062 70.039062 240.484375 70.234375 240.652344 C 70.429688 240.824219 70.613281 240.964844 70.792969 241.089844 C 70.972656 241.210938 71.144531 241.308594 71.3125 241.386719 L 186.371094 295.027344 C 186.625 295.148438 186.878906 295.316406 187.117188 295.519531 C 187.359375 295.726562 187.585938 295.964844 187.789062 296.226562 C 187.992188 296.488281 188.171875 296.769531 188.3125 297.054688 C 188.457031 297.339844 188.558594 297.628906 188.617188 297.90625 C 188.644531 298.046875 188.660156 298.175781 188.660156 298.296875 C 188.660156 298.417969 188.652344 298.527344 188.628906 298.625 C 188.605469 298.726562 188.570312 298.8125 188.523438 298.890625 C 188.480469 298.964844 188.421875 299.03125 188.359375 299.082031 L 325.460938 191.34375 C 325.535156 191.285156 325.601562 191.214844 325.660156 191.132812 C 325.714844 191.054688 325.761719 190.964844 325.796875 190.863281 C 325.832031 190.765625 325.855469 190.65625 325.871094 190.539062 C 325.882812 190.421875 325.882812 190.296875 325.871094 190.164062 C 325.84375 189.898438 325.769531 189.632812 325.652344 189.371094 Z M 325.652344 189.371094 " fill-opacity="1" fill-rule="nonzero"/></g></g></g><g clip-path="url(#f51d2e9fac)"><g clip-path="url(#8dec58b26e)"><g clip-path="url(#144ba7a701)"><path stroke-linecap="butt" transform="matrix(0.394813, -0.029491, 0.029491, 0.394813, 48.483916, 122.4136)" fill="none" stroke-linejoin="miter" d="M 685.531692 220.799454 C 685.294866 220.128765 684.948341 219.46967 684.528533 218.864464 C 684.108725 218.259259 683.615635 217.707943 683.076573 217.242238 C 682.527673 216.775799 681.932067 216.40481 681.307964 216.150419 L 395.961718 99.795139 C 395.548929 99.62579 395.120136 99.405776 394.685914 99.125994 C 394.260797 98.856785 393.821146 98.517233 393.365491 98.127016 C 392.919675 97.737534 392.459326 97.277709 391.983709 96.75738 C 391.508091 96.237051 391.01794 95.646379 390.513256 94.985364 C 389.755127 94.0086 388.990548 92.853263 388.215846 91.568549 C 387.450983 90.28457 386.677466 88.851536 385.913503 87.290595 C 385.158644 85.740227 384.404235 84.051378 383.686692 82.266344 C 382.96915 80.48131 382.269531 78.588781 381.615882 76.610641 C 380.952395 74.631766 380.334878 72.567279 379.762596 70.42702 C 379.179741 68.295865 378.652695 66.079833 378.167945 63.827385 C 377.693769 61.565833 377.273198 59.248922 376.904027 56.906168 C 376.534855 54.563414 376.238967 52.166771 376.002847 49.764698 C 375.688512 46.555375 375.512942 43.475144 375.464094 40.552787 C 375.415982 37.620592 375.495327 34.836432 375.688615 32.248768 C 375.881904 29.661104 376.201179 27.241153 376.611781 25.055585 C 377.023117 22.860177 377.546192 20.890782 378.150019 19.164873 C 378.462139 18.297734 378.788793 17.500938 379.12998 16.774485 C 379.471902 16.038193 379.838196 15.372979 380.209185 14.777374 C 380.590748 14.172664 380.97627 13.647401 381.377061 13.182642 C 381.777117 12.727723 382.192442 12.333307 382.601886 12.017604 C 382.675904 11.953875 382.759026 11.90072 382.832309 11.846831 L 383.051422 11.695001 C 383.133809 11.651685 383.206357 11.607635 383.278905 11.563584 C 383.351453 11.519534 383.43384 11.476218 383.506388 11.432167 C 260.049323 77.404232 136.603567 143.357353 13.147237 209.319578 C 13.085263 209.354524 13.023289 209.389471 12.96058 209.434256 L 12.773188 209.558774 C 12.711214 209.59372 12.647771 209.648345 12.585062 209.69313 L 12.3962 209.837326 C 12.047259 210.137761 11.713587 210.4987 11.402817 210.950395 C 11.092783 211.392251 10.796546 211.914289 10.525418 212.497566 C 10.243715 213.089947 9.995489 213.763981 9.762531 214.498518 C 9.539412 215.23379 9.330827 216.039405 9.155719 216.926672 C 8.797132 218.680794 8.556449 220.710858 8.435874 222.987348 C 8.325873 225.254734 8.32614 227.76781 8.45019 230.478118 C 8.583345 233.198999 8.840282 236.117111 9.231575 239.223349 C 9.632707 242.330323 10.160562 245.595171 10.835552 249.009524 C 11.33614 251.579761 11.897967 254.12489 12.511194 256.644176 C 13.124421 259.163463 13.789783 261.647068 14.498911 264.074579 C 15.207304 266.511929 15.959462 268.893184 16.735708 271.216876 C 17.522528 273.531463 18.34401 275.779381 19.181945 277.939484 C 20.01988 280.099586 20.884843 282.162768 21.757155 284.12756 C 22.629467 286.092351 23.520437 287.93981 24.400548 289.66773 C 25.28066 291.39565 26.161221 292.985089 27.02329 294.424737 C 27.884623 295.874225 28.728198 297.164083 29.535073 298.283004 C 30.082338 299.036245 30.595392 299.717673 31.094647 300.318919 C 31.593902 300.920165 32.078623 301.451068 32.538972 301.910893 C 32.998587 302.380557 33.434563 302.769304 33.86364 303.11796 C 34.293453 303.456777 34.707996 303.73509 35.116376 303.963473 L 314.83277 460.720556 C 315.449524 461.073337 316.057458 461.544186 316.619422 462.100646 C 317.19049 462.667681 317.716322 463.310488 318.178711 464.007919 C 318.6411 464.705351 319.04078 465.447568 319.341334 466.192275 C 319.651728 466.937716 319.853157 467.684913 319.948562 468.394508 C 319.990977 468.753857 320.006081 469.081485 319.983298 469.386495 C 319.960515 469.691505 319.920258 469.965527 319.842851 470.207094 C 319.764708 470.458499 319.659988 470.668343 319.527221 470.856304 C 319.405028 471.035161 319.244949 471.191401 319.07797 471.307549 L 684.678437 225.732151 C 684.876402 225.598529 685.056895 225.433921 685.219914 225.238325 C 685.372359 225.051834 685.507331 224.834355 685.61499 224.585155 C 685.721915 224.345794 685.801527 224.074711 685.862932 223.78248 C 685.914497 223.489514 685.938015 223.174665 685.933486 222.837933 C 685.914588 222.163735 685.777622 221.480717 685.531692 220.799454 Z M 685.531692 220.799454 " stroke="#ce6532" stroke-width="2" stroke-opacity="1" stroke-miterlimit="4"/></g></g></g><g clip-path="url(#da7d9e552c)"><g clip-path="url(#1898d895f8)"><g clip-path="url(#b28078ced6)"><path fill="#ffbd59" d="M 177.453125 269.582031 C 177.777344 271.171875 178.164062 272.75 178.601562 274.304688 C 179.042969 275.859375 179.535156 277.386719 180.074219 278.882812 C 180.613281 280.375 181.199219 281.828125 181.824219 283.230469 C 182.449219 284.632812 183.109375 285.984375 183.808594 287.273438 C 184.011719 287.652344 184.21875 288.023438 184.425781 288.386719 C 184.636719 288.753906 184.847656 289.113281 185.066406 289.46875 C 185.28125 289.820312 185.5 290.171875 185.71875 290.511719 C 185.941406 290.855469 186.167969 291.191406 186.394531 291.519531 L 73.933594 239.523438 C 73.765625 239.445312 73.59375 239.347656 73.410156 239.226562 C 73.230469 239.101562 73.042969 238.960938 72.847656 238.789062 C 72.652344 238.621094 72.445312 238.425781 72.230469 238.199219 C 72.015625 237.976562 71.789062 237.726562 71.550781 237.441406 C 71.195312 237.023438 70.824219 236.535156 70.441406 235.988281 C 70.058594 235.441406 69.664062 234.839844 69.261719 234.179688 C 68.863281 233.523438 68.457031 232.816406 68.054688 232.066406 C 67.648438 231.316406 67.246094 230.519531 66.851562 229.6875 C 66.457031 228.859375 66.066406 227.992188 65.691406 227.097656 C 65.3125 226.203125 64.945312 225.277344 64.597656 224.335938 C 64.246094 223.390625 63.910156 222.425781 63.59375 221.445312 C 63.28125 220.46875 62.984375 219.472656 62.710938 218.472656 C 62.347656 217.136719 62.042969 215.855469 61.800781 214.636719 C 61.554688 213.417969 61.371094 212.265625 61.242188 211.195312 C 61.113281 210.121094 61.042969 209.121094 61.027344 208.21875 C 61.011719 207.3125 61.046875 206.5 61.140625 205.792969 C 61.1875 205.4375 61.246094 205.109375 61.316406 204.808594 C 61.386719 204.511719 61.46875 204.238281 61.5625 203.996094 C 61.652344 203.75 61.757812 203.535156 61.871094 203.351562 C 61.980469 203.164062 62.101562 203.007812 62.230469 202.882812 C 62.363281 202.753906 62.5 202.65625 62.636719 202.585938 C 62.777344 202.515625 62.921875 202.46875 63.070312 202.449219 C 63.21875 202.429688 63.375 202.433594 63.535156 202.460938 C 63.691406 202.488281 63.855469 202.539062 64.027344 202.613281 L 178.382812 251.554688 C 178.144531 251.890625 177.925781 252.269531 177.730469 252.683594 C 177.535156 253.09375 177.363281 253.542969 177.214844 254.023438 C 177.0625 254.503906 176.9375 255.019531 176.828125 255.5625 C 176.722656 256.109375 176.636719 256.679688 176.570312 257.285156 C 176.480469 258.117188 176.429688 259.003906 176.417969 259.941406 C 176.410156 260.882812 176.441406 261.867188 176.511719 262.898438 C 176.585938 263.929688 176.699219 265.003906 176.855469 266.121094 C 177.011719 267.238281 177.210938 268.390625 177.453125 269.582031 Z M 177.453125 269.582031 " fill-opacity="1" fill-rule="nonzero"/><path fill="#ffffff" d="M 177.453125 269.582031 C 177.777344 271.171875 178.164062 272.75 178.601562 274.304688 C 179.042969 275.859375 179.535156 277.386719 180.074219 278.882812 C 180.613281 280.375 181.199219 281.828125 181.824219 283.230469 C 182.449219 284.632812 183.109375 285.984375 183.808594 287.273438 C 184.011719 287.652344 184.21875 288.023438 184.425781 288.386719 C 184.636719 288.753906 184.847656 289.113281 185.066406 289.46875 C 185.28125 289.820312 185.5 290.171875 185.71875 290.511719 C 185.941406 290.855469 186.167969 291.191406 186.394531 291.519531 L 73.933594 239.523438 C 73.765625 239.445312 73.59375 239.347656 73.410156 239.226562 C 73.230469 239.101562 73.042969 238.960938 72.847656 238.789062 C 72.652344 238.621094 72.445312 238.425781 72.230469 238.199219 C 72.015625 237.976562 71.789062 237.726562 71.550781 237.441406 C 71.195312 237.023438 70.824219 236.535156 70.441406 235.988281 C 70.058594 235.441406 69.664062 234.839844 69.261719 234.179688 C 68.863281 233.523438 68.457031 232.816406 68.054688 232.066406 C 67.648438 231.316406 67.246094 230.519531 66.851562 229.6875 C 66.457031 228.859375 66.066406 227.992188 65.691406 227.097656 C 65.3125 226.203125 64.945312 225.277344 64.597656 224.335938 C 64.246094 223.390625 63.910156 222.425781 63.59375 221.445312 C 63.28125 220.46875 62.984375 219.472656 62.710938 218.472656 C 62.347656 217.136719 62.042969 215.855469 61.800781 214.636719 C 61.554688 213.417969 61.371094 212.265625 61.242188 211.195312 C 61.113281 210.121094 61.042969 209.121094 61.027344 208.21875 C 61.011719 207.3125 61.046875 206.5 61.140625 205.792969 C 61.1875 205.4375 61.246094 205.109375 61.316406 204.808594 C 61.386719 204.511719 61.46875 204.238281 61.5625 203.996094 C 61.652344 203.75 61.757812 203.535156 61.871094 203.351562 C 61.980469 203.164062 62.101562 203.007812 62.230469 202.882812 C 62.363281 202.753906 62.5 202.65625 62.636719 202.585938 C 62.777344 202.515625 62.921875 202.46875 63.070312 202.449219 C 63.21875 202.429688 63.375 202.433594 63.535156 202.460938 C 63.691406 202.488281 63.855469 202.539062 64.027344 202.613281 L 178.382812 251.554688 C 178.144531 251.890625 177.925781 252.269531 177.730469 252.683594 C 177.535156 253.09375 177.363281 253.542969 177.214844 254.023438 C 177.0625 254.503906 176.9375 255.019531 176.828125 255.5625 C 176.722656 256.109375 176.636719 256.679688 176.570312 257.285156 C 176.480469 258.117188 176.429688 259.003906 176.417969 259.941406 C 176.410156 260.882812 176.441406 261.867188 176.511719 262.898438 C 176.585938 263.929688 176.699219 265.003906 176.855469 266.121094 C 177.011719 267.238281 177.210938 268.390625 177.453125 269.582031 Z M 177.453125 269.582031 " fill-opacity="1" fill-rule="nonzero"/></g></g></g><g clip-path="url(#a267a173ec)"><g clip-path="url(#5772c6647c)"><g clip-path="url(#33f9241315)"><path fill="#ffbd59" d="M 198.40625 117.242188 C 198.261719 117.203125 198.125 117.171875 197.984375 117.160156 C 197.847656 117.148438 197.710938 117.148438 197.574219 117.164062 C 197.4375 117.179688 197.304688 117.210938 197.171875 117.261719 C 197.039062 117.308594 196.90625 117.375 196.777344 117.457031 L 62.519531 202.652344 C 62.632812 202.582031 62.746094 202.527344 62.867188 202.492188 C 62.984375 202.457031 63.105469 202.4375 63.234375 202.4375 C 63.359375 202.433594 63.488281 202.449219 63.617188 202.480469 C 63.75 202.507812 63.886719 202.554688 64.027344 202.613281 L 178.382812 251.554688 L 313.96875 151.332031 Z M 198.40625 117.242188 " fill-opacity="1" fill-rule="nonzero"/></g></g></g><g clip-path="url(#09d3e20321)"><g clip-path="url(#444b238726)"><g clip-path="url(#49d43dd324)"><path fill="#e2e3e4" d="M 317.253906 188.265625 C 317.0625 187.960938 316.871094 187.648438 316.683594 187.328125 C 316.5 187.011719 316.316406 186.6875 316.136719 186.359375 C 315.960938 186.027344 315.785156 185.691406 315.613281 185.351562 C 315.027344 184.183594 314.484375 182.949219 313.988281 181.660156 C 313.492188 180.371094 313.042969 179.027344 312.648438 177.644531 C 312.25 176.261719 311.90625 174.832031 311.621094 173.375 C 311.335938 171.917969 311.113281 170.429688 310.953125 168.929688 C 310.832031 167.800781 310.753906 166.703125 310.71875 165.636719 C 310.679688 164.574219 310.683594 163.542969 310.722656 162.550781 C 310.765625 161.558594 310.84375 160.605469 310.960938 159.695312 C 311.078125 158.785156 311.230469 157.917969 311.421875 157.101562 C 311.558594 156.507812 311.714844 155.941406 311.886719 155.402344 C 312.0625 154.863281 312.253906 154.347656 312.464844 153.863281 C 312.675781 153.378906 312.90625 152.925781 313.15625 152.503906 C 313.40625 152.082031 313.675781 151.6875 313.96875 151.332031 L 178.382812 251.554688 C 178.144531 251.890625 177.925781 252.269531 177.730469 252.679688 C 177.535156 253.09375 177.363281 253.542969 177.214844 254.023438 C 177.0625 254.503906 176.9375 255.019531 176.828125 255.5625 C 176.722656 256.109375 176.636719 256.679688 176.570312 257.285156 C 176.480469 258.117188 176.429688 259.003906 176.417969 259.941406 C 176.410156 260.878906 176.441406 261.867188 176.511719 262.898438 C 176.585938 263.929688 176.699219 265.003906 176.855469 266.121094 C 177.011719 267.238281 177.210938 268.390625 177.453125 269.582031 C 177.777344 271.171875 178.164062 272.75 178.601562 274.304688 C 179.042969 275.859375 179.535156 277.386719 180.074219 278.882812 C 180.613281 280.375 181.199219 281.828125 181.824219 283.230469 C 182.449219 284.632812 183.109375 285.984375 183.804688 287.273438 C 184.011719 287.652344 184.21875 288.023438 184.425781 288.386719 C 184.636719 288.753906 184.847656 289.113281 185.066406 289.46875 C 185.28125 289.820312 185.5 290.171875 185.71875 290.511719 C 185.941406 290.855469 186.167969 291.191406 186.394531 291.519531 L 317.847656 189.164062 C 317.648438 188.871094 317.449219 188.570312 317.253906 188.265625 Z M 317.253906 188.265625 " fill-opacity="1" fill-rule="nonzero"/></g></g></g><g clip-path="url(#58ca679153)"><g clip-path="url(#7f29c2900b)"><g clip-path="url(#af5aa5b2e1)"><path fill="#004aad" d="M 321.558594 147.726562 C 321.4375 147.457031 321.277344 147.199219 321.09375 146.96875 C 320.90625 146.734375 320.6875 146.53125 320.453125 146.363281 C 320.21875 146.195312 319.964844 146.066406 319.707031 145.992188 L 201.207031 111.695312 C 200.898438 111.605469 200.597656 111.546875 200.308594 111.523438 C 200.019531 111.496094 199.742188 111.503906 199.476562 111.535156 C 199.210938 111.570312 198.953125 111.632812 198.710938 111.71875 C 198.472656 111.808594 198.242188 111.921875 198.023438 112.058594 C 151.125 141.605469 104.222656 171.15625 57.320312 200.707031 C 57.507812 200.589844 57.707031 200.496094 57.921875 200.433594 C 58.136719 200.371094 58.367188 200.335938 58.613281 200.332031 C 58.859375 200.328125 59.121094 200.355469 59.394531 200.414062 C 59.667969 200.472656 59.957031 200.566406 60.261719 200.699219 L 177.460938 250.886719 C 177.722656 250.996094 177.980469 251.164062 178.226562 251.367188 C 178.476562 251.570312 178.707031 251.816406 178.917969 252.082031 C 179.128906 252.351562 179.3125 252.640625 179.457031 252.9375 C 179.605469 253.234375 179.714844 253.539062 179.773438 253.835938 C 179.804688 253.992188 179.820312 254.140625 179.820312 254.277344 C 179.824219 254.414062 179.808594 254.539062 179.78125 254.648438 C 179.753906 254.761719 179.714844 254.859375 179.664062 254.945312 C 179.609375 255.03125 179.546875 255.101562 179.46875 255.15625 L 321.308594 149.871094 C 321.394531 149.804688 321.46875 149.726562 321.535156 149.640625 C 321.601562 149.550781 321.652344 149.449219 321.695312 149.339844 C 321.738281 149.226562 321.765625 149.105469 321.78125 148.972656 C 321.792969 148.84375 321.796875 148.703125 321.78125 148.554688 C 321.753906 148.273438 321.675781 147.996094 321.558594 147.726562 Z M 321.558594 147.726562 " fill-opacity="1" fill-rule="nonzero"/></g></g></g><g clip-path="url(#e4bf7fd25f)"><g clip-path="url(#b641e1f4d2)"><g clip-path="url(#189f6b676b)"><path stroke-linecap="butt" transform="matrix(0.394813, -0.029491, 0.029491, 0.394813, 48.483916, 122.4136)" fill="none" stroke-linejoin="miter" d="M 683.055553 115.135371 C 682.801253 114.433696 682.446359 113.754187 682.027286 113.139143 C 681.599109 112.513524 681.08634 111.960738 680.527601 111.493564 C 679.968861 111.02639 679.353578 110.653931 678.718166 110.418483 L 386.694182 1.736783 C 385.933802 1.452426 385.187221 1.24825 384.463543 1.134831 C 383.740599 1.011572 383.040559 0.97907 382.365625 1.007806 C 381.689957 1.046382 381.028822 1.1553 380.402634 1.326193 C 379.78555 1.507659 379.183734 1.74963 378.607026 2.052839 C 254.920604 67.65159 131.223608 133.259445 7.526612 198.8673 C 8.020933 198.607406 8.540362 198.408751 9.093268 198.291748 C 9.646173 198.174746 10.23329 198.129556 10.853884 198.166018 C 11.474477 198.20248 12.128548 198.320594 12.806256 198.519625 C 13.483963 198.718655 14.194413 199.009177 14.936869 199.401029 L 300.694734 347.863158 C 301.333371 348.187892 301.951144 348.659476 302.532786 349.217406 C 303.124267 349.776071 303.658469 350.439291 304.139801 351.148032 C 304.620397 351.866611 305.028446 352.629241 305.336635 353.4042 C 305.654663 354.179894 305.872831 354.967916 305.964561 355.726706 C 306.013876 356.126147 306.025304 356.50297 305.999581 356.847336 C 305.983698 357.192436 305.920824 357.504346 305.831372 357.774694 C 305.741186 358.054881 305.624422 358.293507 305.480346 358.500412 C 305.326431 358.706581 305.155778 358.871925 304.948708 358.994972 L 682.022375 120.489961 C 682.251327 120.338867 682.452967 120.15605 682.636399 119.952085 C 682.820566 119.738281 682.967582 119.492021 683.09639 119.224612 C 683.225932 118.947365 683.317588 118.6475 683.381932 118.315913 C 683.435702 117.993429 683.471999 117.639959 683.460571 117.263137 C 683.444613 116.549582 683.300013 115.836312 683.055553 115.135371 Z M 683.055553 115.135371 " stroke="#ce6532" stroke-width="2" stroke-opacity="1" stroke-miterlimit="4"/></g></g></g><g clip-path="url(#ea0210a8da)"><g clip-path="url(#f7a802dc20)"><g clip-path="url(#a32c6d4b1c)"><path fill="#5271ff" d="M 60.261719 200.699219 L 177.460938 250.886719 C 177.722656 250.996094 177.980469 251.164062 178.226562 251.367188 C 178.472656 251.570312 178.707031 251.816406 178.917969 252.082031 C 179.128906 252.351562 179.3125 252.640625 179.457031 252.9375 C 179.605469 253.234375 179.714844 253.539062 179.773438 253.835938 C 179.832031 254.128906 179.835938 254.390625 179.792969 254.605469 C 179.75 254.820312 179.65625 254.988281 179.527344 255.109375 C 179.394531 255.230469 179.222656 255.300781 179.019531 255.308594 C 178.820312 255.320312 178.585938 255.273438 178.324219 255.164062 L 61.34375 204.632812 C 61.175781 204.5625 61.011719 204.511719 60.855469 204.484375 C 60.695312 204.453125 60.542969 204.449219 60.394531 204.46875 C 60.25 204.488281 60.105469 204.53125 59.96875 204.601562 C 59.828125 204.671875 59.695312 204.769531 59.566406 204.894531 C 59.4375 205.019531 59.320312 205.175781 59.207031 205.363281 C 59.097656 205.546875 58.996094 205.761719 58.90625 206 C 58.8125 206.242188 58.734375 206.515625 58.664062 206.8125 C 58.597656 207.109375 58.539062 207.433594 58.496094 207.789062 C 58.40625 208.492188 58.371094 209.300781 58.390625 210.203125 C 58.414062 211.101562 58.488281 212.09375 58.617188 213.160156 C 58.75 214.230469 58.9375 215.375 59.183594 216.589844 C 59.433594 217.804688 59.738281 219.078125 60.105469 220.40625 C 60.378906 221.40625 60.675781 222.394531 60.992188 223.371094 C 61.308594 224.347656 61.644531 225.308594 61.996094 226.246094 C 62.347656 227.1875 62.714844 228.105469 63.09375 229 C 63.46875 229.890625 63.859375 230.753906 64.253906 231.582031 C 64.648438 232.410156 65.050781 233.199219 65.453125 233.949219 C 65.855469 234.699219 66.261719 235.402344 66.660156 236.058594 C 67.058594 236.710938 67.453125 237.316406 67.835938 237.859375 C 68.21875 238.40625 68.589844 238.890625 68.941406 239.308594 C 69.179688 239.589844 69.402344 239.84375 69.617188 240.066406 C 69.832031 240.289062 70.039062 240.484375 70.234375 240.652344 C 70.429688 240.824219 70.613281 240.964844 70.792969 241.089844 C 70.972656 241.210938 71.144531 241.308594 71.3125 241.386719 L 186.371094 295.027344 C 186.625 295.148438 186.878906 295.316406 187.117188 295.519531 C 187.359375 295.726562 187.585938 295.964844 187.789062 296.226562 C 187.992188 296.488281 188.171875 296.769531 188.3125 297.054688 C 188.457031 297.339844 188.558594 297.628906 188.617188 297.90625 C 188.671875 298.183594 188.671875 298.425781 188.628906 298.621094 C 188.582031 298.820312 188.492188 298.972656 188.363281 299.078125 C 188.234375 299.183594 188.066406 299.234375 187.867188 299.234375 C 187.667969 299.234375 187.4375 299.175781 187.183594 299.058594 L 72.320312 245.113281 C 71.953125 244.9375 71.578125 244.71875 71.199219 244.464844 C 70.824219 244.207031 70.445312 243.910156 70.066406 243.582031 C 69.691406 243.253906 69.3125 242.894531 68.941406 242.507812 C 68.570312 242.121094 68.203125 241.710938 67.84375 241.277344 C 67.480469 240.84375 67.125 240.386719 66.773438 239.914062 C 66.421875 239.4375 66.074219 238.945312 65.730469 238.433594 C 65.386719 237.921875 65.046875 237.390625 64.714844 236.84375 C 64.382812 236.296875 64.050781 235.734375 63.726562 235.15625 C 63.082031 234.003906 62.453125 232.785156 61.84375 231.519531 C 61.238281 230.253906 60.65625 228.9375 60.105469 227.582031 C 59.550781 226.230469 59.03125 224.835938 58.546875 223.421875 C 58.0625 222.007812 57.613281 220.5625 57.210938 219.105469 C 56.90625 218.015625 56.644531 216.953125 56.414062 215.929688 C 56.183594 214.902344 55.988281 213.910156 55.828125 212.960938 C 55.667969 212.007812 55.542969 211.09375 55.453125 210.226562 C 55.363281 209.355469 55.3125 208.53125 55.292969 207.753906 C 55.273438 206.976562 55.289062 206.246094 55.339844 205.570312 C 55.394531 204.894531 55.480469 204.269531 55.609375 203.707031 C 55.734375 203.140625 55.898438 202.636719 56.105469 202.199219 C 56.3125 201.757812 56.558594 201.386719 56.851562 201.089844 C 57.042969 200.890625 57.261719 200.726562 57.5 200.601562 C 57.738281 200.480469 58 200.394531 58.285156 200.355469 C 58.570312 200.316406 58.878906 200.320312 59.207031 200.378906 C 59.539062 200.433594 59.890625 200.539062 60.261719 200.699219 Z M 60.261719 200.699219 " fill-opacity="1" fill-rule="nonzero"/></g></g></g><g clip-path="url(#5bac121990)"><g clip-path="url(#5099615a83)"><g clip-path="url(#4971e1b68a)"><path stroke-linecap="butt" transform="matrix(0.394813, -0.029491, 0.029491, 0.394813, 48.483916, 122.4136)" fill="none" stroke-linejoin="miter" d="M 14.936869 199.401029 L 300.694734 347.863158 C 301.333371 348.187892 301.951144 348.659476 302.532786 349.217406 C 303.114428 349.775337 303.658469 350.439291 304.139801 351.148032 C 304.620397 351.866611 305.028446 352.629241 305.336635 353.4042 C 305.654663 354.179894 305.872831 354.967916 305.964561 355.726706 C 306.057026 356.475657 306.017624 357.135607 305.868974 357.668669 C 305.720323 358.201731 305.452584 358.607171 305.105113 358.887928 C 304.747803 359.16795 304.301657 359.312715 303.788558 359.294177 C 303.284562 359.286212 302.70304 359.124047 302.064403 358.799314 L 16.922198 209.512507 C 16.512349 209.303803 16.108664 209.145028 15.720248 209.046757 C 15.322727 208.937913 14.93974 208.899411 14.562182 208.920679 C 14.194463 208.942681 13.822335 209.023718 13.46474 209.175097 C 13.097306 209.325742 12.744406 209.54673 12.3962 209.837326 C 12.047994 210.127922 11.723426 210.499435 11.402817 210.950395 C 11.092783 211.392251 10.796546 211.914289 10.525418 212.497566 C 10.243715 213.089947 9.995489 213.763981 9.762531 214.498518 C 9.539412 215.23379 9.330827 216.039405 9.155719 216.926672 C 8.797132 218.680794 8.556449 220.710858 8.435874 222.987348 C 8.325873 225.254734 8.32614 227.76781 8.45019 230.478118 C 8.583345 233.198999 8.840282 236.117111 9.231575 239.223349 C 9.632707 242.330323 10.160562 245.595171 10.835552 249.009524 C 11.33614 251.579761 11.897967 254.12489 12.511194 256.644176 C 13.124421 259.163463 13.789783 261.647068 14.498911 264.074579 C 15.207304 266.511929 15.959462 268.893184 16.745547 271.217611 C 17.522528 273.531463 18.34401 275.779381 19.181945 277.939484 C 20.01988 280.099586 20.884843 282.162768 21.757155 284.12756 C 22.629467 286.092351 23.520437 287.93981 24.400548 289.66773 C 25.281395 291.385811 26.161221 292.985089 27.02329 294.424737 C 27.884623 295.874225 28.728198 297.164083 29.535073 298.283004 C 30.082338 299.036245 30.595392 299.717673 31.094647 300.318919 C 31.593902 300.920165 32.078623 301.451068 32.538972 301.910893 C 32.998587 302.380557 33.434563 302.769304 33.86364 303.11796 C 34.293453 303.456777 34.707996 303.73509 35.116376 303.963473 L 314.83277 460.720556 C 315.449524 461.073337 316.057458 461.544186 316.619422 462.100646 C 317.19049 462.667681 317.716322 463.310488 318.178711 464.007919 C 318.6411 464.705351 319.04078 465.447568 319.341334 466.192275 C 319.651728 466.937716 319.853157 467.684913 319.948562 468.394508 C 320.034128 469.103368 319.988562 469.713387 319.843586 470.197254 C 319.688036 470.690226 319.433075 471.057044 319.088544 471.298445 C 318.744013 471.539846 318.311381 471.636151 317.80959 471.598669 C 317.3078 471.561187 316.738321 471.370241 316.120833 471.027299 L 36.953715 313.539518 C 36.061919 313.027678 35.158529 312.406139 34.251914 311.695313 C 33.355873 310.975383 32.457343 310.156328 31.564692 309.258561 C 30.68188 308.361529 29.795108 307.385049 28.933159 306.341167 C 28.071211 305.297284 27.22351 304.195102 26.399898 303.035356 C 25.566446 301.874875 24.757082 300.656829 23.960497 299.400163 C 23.164647 298.133657 22.381576 296.82853 21.612018 295.474943 C 20.84246 294.121356 20.086417 292.719309 19.35299 291.279376 C 18.619564 289.839442 17.889078 288.360153 17.181209 286.842977 C 15.774576 283.8192 14.419793 280.631098 13.123024 277.328603 C 11.836094 274.026843 10.617753 270.601586 9.485473 267.083817 C 8.34262 263.575153 7.296401 259.964873 6.342409 256.312013 C 5.388417 252.659153 4.528855 248.934196 3.789567 245.18854 C 3.22717 242.386126 2.767858 239.66067 2.379909 237.039484 C 1.992695 234.408458 1.687417 231.872599 1.462607 229.451583 C 1.238531 227.020728 1.095658 224.694877 1.032516 222.49371 C 0.970109 220.282703 0.997274 218.197114 1.094331 216.235473 C 1.191388 214.273832 1.368177 212.436874 1.623229 210.744276 C 1.888119 209.052413 2.222168 207.494338 2.652687 206.101771 C 3.074101 204.69863 3.582147 203.460263 4.185929 202.397243 C 4.790445 201.324385 5.480123 200.435978 6.273905 199.743332 C 6.793499 199.277554 7.375352 198.905471 7.99905 198.635453 C 8.622014 198.375275 9.297398 198.208057 10.022996 198.163317 C 10.748594 198.118577 11.525142 198.186476 12.340597 198.395796 C 13.166625 198.596012 14.032294 198.92781 14.936869 199.401029 Z M 14.936869 199.401029 " stroke="#ce6532" stroke-width="2" stroke-opacity="1" stroke-miterlimit="4"/></g></g></g><g clip-path="url(#0609385ad4)"><g clip-path="url(#cdd4b32198)"><g clip-path="url(#656fc24994)"><path fill="#ff5757" d="M 239.171875 244.589844 C 234.523438 192.859375 219.351562 150.957031 199.96875 118.066406 C 205.214844 145.71875 208.585938 167.789062 209.050781 173.355469 C 206.589844 161.777344 200.425781 134.785156 193.304688 107.371094 C 186.378906 96.816406 179.042969 87.300781 171.546875 78.804688 C 179.226562 107.644531 184.621094 131.199219 185.5625 137.121094 C 182.230469 125.5625 174.046875 98.597656 164.949219 71.628906 C 153.070312 59.210938 140.980469 49.269531 129.648438 41.679688 C 138.140625 66.742188 144.226562 86.84375 145.515625 92.320312 C 141.878906 82.40625 133.644531 60.886719 124.300781 38.230469 C 97.441406 21.625 75.953125 18.773438 73.71875 27.953125 C 72.410156 33.320312 76.996094 50.015625 85.523438 72.082031 C 96.21875 76.121094 105.59375 78.953125 110.183594 80.117188 C 107.910156 80.75 99.527344 80.683594 88.328125 79.207031 C 96.914062 100.496094 108.675781 125.8125 122.085938 150.53125 C 138.484375 150.128906 156.308594 145.96875 162.875 143.910156 C 160.152344 146.800781 145.570312 155.539062 128.136719 161.425781 C 135.929688 175.179688 144.1875 188.535156 152.617188 200.675781 C 170.203125 201.140625 191.074219 196.3125 198.3125 194.058594 C 195.453125 197.082031 179.613281 206.519531 161.105469 212.386719 C 189.40625 249.625 218.695312 270.355469 239.171875 244.589844 Z M 239.171875 244.589844 " fill-opacity="1" fill-rule="evenodd"/></g></g></g><g clip-path="url(#f6865915b5)"><g clip-path="url(#9eb428e755)"><g clip-path="url(#72a323ae01)"><path fill="#000000" d="M 275.542969 330.960938 C 281.257812 344.953125 297.996094 358.144531 296.289062 353.960938 C 276.992188 306.722656 237.414062 235.882812 200.609375 178.121094 C 171.042969 131.722656 137.300781 87.339844 101.308594 52.992188 C 98.691406 50.488281 98.382812 52.273438 100.636719 56.976562 C 102.886719 61.679688 106.839844 67.507812 109.460938 70.011719 C 141.9375 101.011719 171.847656 140.210938 197.726562 180.808594 C 230.6875 232.5625 257.746094 287.390625 275.542969 330.960938 Z M 275.542969 330.960938 " fill-opacity="1" fill-rule="nonzero"/></g></g></g></svg>